inDegrees=no
num_controls=7
num_derivatives=13
num_iterations=107
num_multipliers=7
num_parameters=0
num_slacks=7
num_states=26
objective=0.444911
objective_accelerations=0.058438
objective_balance=0.003689
objective_effort=0.023570
objective_height=0.353715
objective_ligament=0.005498
solver_duration=1501.524236
status=Solve_Succeeded
success=true
DataType=double
version=3
OpenSimVersion=4.5
endheader
time	/jointset/ground_pelvis/pelvis_tilt/value	/jointset/ground_pelvis/pelvis_tx/value	/jointset/ground_pelvis/pelvis_ty/value	/jointset/hip_l/hip_flexion_l/value	/jointset/hip_l/hip_adduction_l/value	/jointset/hip_l/hip_rotation_l/value	/jointset/back/lumbar_extension/value	/jointset/patellofemoral_l/patellar_flexion_l/value	/jointset/knee_l/knee_flexion_l/value	/jointset/knee_l/knee_adduction_l/value	/jointset/knee_l/knee_rotation_l/value	/jointset/ankle_l/ankle_angle_l/value	/jointset/subtalar_l/subtalar_angle_l/value	/jointset/ground_pelvis/pelvis_tilt/speed	/jointset/ground_pelvis/pelvis_tx/speed	/jointset/ground_pelvis/pelvis_ty/speed	/jointset/hip_l/hip_flexion_l/speed	/jointset/hip_l/hip_adduction_l/speed	/jointset/hip_l/hip_rotation_l/speed	/jointset/back/lumbar_extension/speed	/jointset/patellofemoral_l/patellar_flexion_l/speed	/jointset/knee_l/knee_flexion_l/speed	/jointset/knee_l/knee_adduction_l/speed	/jointset/knee_l/knee_rotation_l/speed	/jointset/ankle_l/ankle_angle_l/speed	/jointset/subtalar_l/subtalar_angle_l/speed	/forceset/tau_hip_flexion_l	/forceset/tau_hip_adduction_l	/forceset/tau_hip_rotation_l	/forceset/tau_knee_flexion_l	/forceset/tau_ankle_angle_l	/forceset/tau_subtalar_angle_l	/forceset/tau_lumbar_extension	lambda_cid13_p0	lambda_cid13_p1	lambda_cid13_p2	lambda_cid13_p3	lambda_cid13_p4	lambda_cid13_p5	lambda_cid14_p0	/jointset/ground_pelvis/pelvis_tilt/accel	/jointset/ground_pelvis/pelvis_tx/accel	/jointset/ground_pelvis/pelvis_ty/accel	/jointset/hip_l/hip_flexion_l/accel	/jointset/hip_l/hip_adduction_l/accel	/jointset/hip_l/hip_rotation_l/accel	/jointset/back/lumbar_extension/accel	/jointset/patellofemoral_l/patellar_flexion_l/accel	/jointset/knee_l/knee_flexion_l/accel	/jointset/knee_l/knee_adduction_l/accel	/jointset/knee_l/knee_rotation_l/accel	/jointset/ankle_l/ankle_angle_l/accel	/jointset/subtalar_l/subtalar_angle_l/accel	gamma_cid13_p0	gamma_cid13_p1	gamma_cid13_p2	gamma_cid13_p3	gamma_cid13_p4	gamma_cid13_p5	gamma_cid14_p0
0.5	-0.3536852349770216	-0.04549986378875635	0.7564473510091533	1.125361043552023	-0.4365306994487869	-0.2221158177485333	-0.2546167345893601	0.8086337730058666	0.8086337730057471	-0.1273177793189476	-0.1596295621142746	0.09674258179597756	-0.03824376766923388	-0.8044902195720184	-0.2273500931947536	-0.5446262585898655	2.542358212610069	-0.2042741843269126	0.7533096443555448	-0.1139139731654119	1.994849164187104	1.994849164187186	0.1293662938958264	-0.08420676237352563	0.4300566583457697	-0.01537785282116243	-0.1743446642159929	0.01581568706509235	-0.01126522112647823	-0.2187667032290137	0.07504352894435698	0.04696108915129396	0.1707076701408234	-8.676562160099646	-21.9691354676483	6.699670926957645	-8.008846116716152	-521.9460503069434	-64.29552216228996	-25.09665291295138	0.8299434917595399	0.6501700750418689	-0.462271944983776	-1.414605423746543	0.7527291315653537	-0.2080880281046246	1.090673894774771	-1.264990698143616	-1.264990698143634	0.08185001329176414	0.1770246728202091	-0.4757899578089463	0.5683613414262874	-5.599500981284686e-07	-4.720464949741349e-07	2.726299004643725e-06	1.377810246746864e-07	-6.289675527496056e-07	1.148599914321915e-07	-4.608617319064593e-07
0.51	-0.3616866770988638	-0.04774057176633419	0.7509791839513486	1.150708908124216	-0.4385369739431482	-0.2145920693888945	-0.2557025451631749	0.8285159268044409	0.828515926804405	-0.1260242914350297	-0.1604623981064116	0.101018195673733	-0.03837103469086831	-0.7956812648567761	-0.2207710034631939	-0.5488892233905356	2.526863631480229	-0.196965512224644	0.7513371653326527	-0.1032870930078333	1.981314696130465	1.981314696130466	0.1293270769236432	-0.08235442029572708	0.4249966190151274	-0.0100853610033007	-0.1800869484737824	0.01653294535192963	-0.01132375433722454	-0.2213980433566812	0.07465353917621888	0.04733733097479597	0.175082617249885	-9.012179501903402	-22.05399442797514	6.690606869683094	-7.949944590673664	-525.6942682991843	-63.90678579720149	-24.17683870615965	0.923843745510015	0.6648826247070444	-0.3907426751775477	-1.669625588709034	0.7219181658432691	-0.2076533752854336	1.042852364676477	-1.437617923429231	-1.437617923441323	-0.047405858879255	0.1907994566819091	-0.531531260482903	0.5079699454966612	-5.481905793656615e-07	-3.907555665497775e-07	2.760585676690296e-06	1.557141383704154e-07	-6.052701104730819e-07	1.853233727836157e-07	-4.552592015519976e-07
0.52	-0.3695965352167329	-0.04991486800609762	0.7454719004600233	1.175891278658892	-0.4404697653332297	-0.2070912109266646	-0.2566832554777279	0.848254747309647	0.8482547473096942	-0.1247313153821152	-0.1612764185814866	0.1052411250902241	-0.038445721425618	-0.786173418777397	-0.2140677456318681	-0.5524495452939602	2.509259405106139	-0.1895775634709498	0.7487316648736037	-0.09289392131317298	1.966182505513619	1.96618250551354	0.1292639276952245	-0.08044365896103921	0.4195197660928444	-0.004861795444217097	-0.1858292327315549	0.01725020363877124	-0.01138228754797202	-0.2240293834843476	0.07426354940808066	0.04771357279830293	0.1794575643589619	-9.351184137283298	-22.13900669354689	6.682421548069207	-7.925039698748595	-529.5240081840114	-63.57764333718909	-23.25828301534803	0.9697217645869307	0.6750036949950962	-0.3217433655346703	-1.836534472596356	0.7685844618504726	-0.3346923153360167	1.043932202191109	-1.584535210184846	-1.584535210184831	0.07706356204465996	0.1887085241980733	-0.5591526761370581	0.5545760896706651	-5.335402078001667e-07	-3.117345279410237e-07	2.778074859796625e-06	1.73584623412475e-07	-5.819280236534851e-07	2.553808200176212e-07	-4.472408016028523e-07
0.53	-0.3774079831938789	-0.0520216198920517	0.7399325467616897	1.200887395373026	-0.4423282752364734	-0.1996192617720573	-0.2575613229595267	0.8678344148373967	0.8678344148374683	-0.1234391587116573	-0.1620708749079893	0.1094072418670564	-0.03846849833492769	-0.776003814481604	-0.2072720897499287	-0.5552998833989712	2.489623672655717	-0.1821155600380176	0.7455585846914474	-0.08278250723247121	1.949492349715132	1.949492349715093	0.1291588490361428	-0.07844007304981057	0.4136342954301865	0.0002895387587832181	-0.1914469359116285	0.01773951576103389	-0.01138165434449823	-0.2266515210344327	0.07372834423139228	0.0479971978963322	0.1836750643893985	-9.738130933837828	-22.17121424784688	6.661033474081025	-7.754192153999376	-533.2974411665836	-63.21984778980825	-22.34257750674516	1.057364892298195	0.6834644003967956	-0.2485963204211817	-2.078212972222235	0.736012417136448	-0.323929750996898	0.9853061831076888	-1.749964707003092	-1.749964706997089	-0.05552957647868737	0.207878344076809	-0.6136244576144629	0.4925990081348182	-5.168736427294568e-07	-2.263796665485633e-07	2.79048165583528e-06	1.94956522012225e-07	-5.596516403851964e-07	3.240627860247862e-07	-4.366097514546941e-07
0.54	-0.3851143781020221	-0.05406009164606568	0.7343683062248189	1.225676930694464	-0.4441119642787635	-0.1921821061955409	-0.2583401642660988	0.8872394390186945	0.8872394390187944	-0.1221483000271053	-0.1628449564314873	0.113512427898005	-0.03844032451770336	-0.7651628049769027	-0.2004117192438453	-0.5574269130014569	2.467943126567012	-0.1746133912802102	0.7417729492556312	-0.07304868626785128	1.931253836223746	1.931253836223747	0.1290043305132962	-0.07636869835891942	0.407333616916156	0.005328349862587514	-0.1970646390917034	0.01822882788329283	-0.01138102114095449	-0.2292736585845226	0.07319313905470198	0.04828082299435515	0.1878925644198354	-10.12883061459982	-22.20349139844144	6.640488313623034	-7.615094735072606	-537.1571894477805	-62.92193997265511	-21.43279370954341	1.10400280636857	0.6879466198238871	-0.1770816650296447	-2.245497200252776	0.7766175268255237	-0.4572033660680376	0.9684135789747353	-1.894206748764677	-1.894206748764677	0.06717558929169468	0.2022662801305751	-0.6421942464115901	0.5320714698314633	-4.979763954827642e-07	-1.340171714379596e-07	2.797265385330978e-06	2.202023249736752e-07	-5.385543333864402e-07	3.912229430150212e-07	-4.230881095969899e-07
0.55	-0.3927092588609364	-0.05602973049224414	0.7287864116016518	1.250239868420843	-0.4458203875005877	-0.1847855859120631	-0.2590235332545864	0.9064545101174158	0.9064545101174868	-0.1208592311109421	-0.1635978137131368	0.1175526015520435	-0.03836224805082725	-0.7537116573225099	-0.1935135387229225	-0.5588299469002509	2.444323198155327	-0.1670689251571596	0.7374302929300846	-0.06369974233684818	1.911516276767945	1.911516276767977	0.1288013390317442	-0.07419873481605561	0.4006367611558788	0.01026509377250016	-0.2025311451558447	0.01871475743022801	-0.01131883453055814	-0.2318962835016606	0.07267130599703447	0.04827782655141091	0.1919411330371233	-10.51634811534723	-22.10298759537429	6.588654052891973	-7.362884027707791	-540.9092828108733	-62.40102681226975	-20.53370738947506	1.180856398744958	0.691177253139014	-0.1037099518899901	-2.468502575014744	0.7433605636417835	-0.4382684877400816	0.9069401640623899	-2.050063414302038	-2.050063414297368	-0.06518681294310379	0.2255314904239021	-0.6930594567592341	0.4708845794482764	-4.755751149705342e-07	-4.322151088282187e-08	2.790684638580869e-06	2.427062167731542e-07	-5.142656458255658e-07	4.545946512337731e-07	-4.074548768385794e-07
0.5600000000000001	-0.4001865910125521	-0.05793030283623084	0.7231941274995798	1.274556954480429	-0.4474533661794618	-0.1774355865362309	-0.2596156517309837	0.9254648990475135	0.9254648990475591	-0.1195724221688043	-0.1643287373395519	0.1215238810052941	-0.03823552239927658	-0.7416530835173039	-0.186598418805491	-0.5595048087824711	2.418772793208112	-0.1595244826902295	0.7324687677268522	-0.05479858384987427	1.890317402499575	1.890317402499638	0.128552335707613	-0.07198196731080646	0.3935547767586637	0.01505818679749708	-0.2079976512199794	0.01920068697715927	-0.01125664792007653	-0.234518908418804	0.07214947293936394	0.04827483010845921	0.19598970165442	-10.90642351578888	-22.00202793047358	6.536739766662546	-7.1471420897131	-544.7332528627278	-61.93419166691388	-19.6476657472627	1.225488036531205	0.6913344991256427	-0.03144726171486267	-2.63159250735862	0.7766127956014225	-0.5809771416052004	0.8788564901688897	-2.186469711278478	-2.186469711278471	0.05797322077585913	0.2116270726076439	-0.7192199737991416	0.5033412928483201	-4.489689945396595e-07	4.569394820575695e-08	2.768066520335791e-06	2.619198151782681e-07	-4.861473015901499e-07	5.134202209267451e-07	-3.892877349993214e-07
0.5700000000000001	-0.4075404877253974	-0.05976169774834493	0.7175987436231978	1.298609188768967	-0.4490108197809147	-0.17013802432533	-0.2601210554697463	0.9442561456692353	0.9442561456692675	-0.1182882815991634	-0.1650370482358125	0.1254225431707095	-0.03806143333574703	-0.7290277845082866	-0.1796825720189944	-0.559447705028618	2.391356450832641	-0.1519695516431827	0.726945367671589	-0.04637860342238598	1.867698078232135	1.867698078232161	0.1282645316314841	-0.06967503918264266	0.3861224556530678	0.0197357914070445	-0.2132025745759693	0.01924144923406558	-0.01113167286236572	-0.2373429464261121	0.07177096292230246	0.04829014606930161	0.1997969014020901	-11.24639691474215	-21.91797996278346	6.487732493156968	-6.912323936296197	-548.4586019721431	-61.57352662984734	-18.77644562941746	1.295757573524085	0.6914630658028798	0.04283436534183743	-2.844371949103	0.7440701699262384	-0.5530821508897961	0.8091028910641748	-2.334664524109643	-2.334664524115329	-0.07376035745184115	0.2415585268658155	-0.7634825794211378	0.4460570052901595	-4.19807801259344e-07	1.141951899883674e-07	2.708092555637331e-06	2.73120132397719e-07	-4.551113717372245e-07	5.618285047426816e-07	-3.694636684482544e-07
